# xmcd
# 
# Track frame offsets:
#     150
#     68078
#     108539
#     135147
#     176677
#     197016
#     234630
#     268959
#     295983
# 
# Disc length: 4153
# 
# Revision: 1
# Processed by: cddbd v1.5.2PL0 Copyright (c) Steve Scherf et al.
# Submitted via: BonkEnc v1.0.8
# 
DISCID=85103709
DTITLE=Cracow Klezmer Band - Remembrance
DYEAR=2007
DGENRE=Klezmer
TTITLE0=Recollections of the Past
TTITLE1=The Migration of Souls
TTITLE2=Memento Mori
TTITLE3=The Tree of Liife
TTITLE4=Klezmer Rhapsody
TTITLE5=The Prayer
TTITLE6=Awaiting
TTITLE7=The Colours of the Heavens
TTITLE8=A Devilish Tale
EXTD=
EXTT0=
EXTT1=
EXTT2=
EXTT3=
EXTT4=
EXTT5=
EXTT6=
EXTT7=
EXTT8=
PLAYORDER=
